<?xml version="1.0" encoding="UTF-8"?>
<!-- Generated by Pixelmator Pro 3.7 -->
<svg width="1832" height="1128" viewBox="0 0 1832 1128" xmlns="http://www.w3.org/2000/svg">
    <g id="Logo-Placeholder-Replace-With-Your-Logo-">
        <linearGradient id="linearGradient1" x1="908.95723" y1="964" x2="908.95723" y2="775.524475" gradientUnits="userSpaceOnUse">
            <stop offset="0" stop-color="#4b00ff" stop-opacity="1"/>
            <stop offset="1" stop-color="#6e00ff" stop-opacity="1"/>
        </linearGradient>
        <path id="DIJITIZECOM" fill="url(#linearGradient1)" fill-rule="evenodd" stroke="none" d="M 1560.368286 882.810486 L 1560.368286 906.007507 L 1716.640991 906.007507 L 1716.640991 961.100342 L 1508.962769 961.100342 L 1508.962769 775.524475 L 1716.229858 775.524475 L 1716.229858 830.61731 L 1560.368286 830.61731 L 1560.368286 853.814331 L 1687.853882 853.814331 L 1687.853882 882.810486 Z M 1233.429077 775.524475 L 1451.388428 775.524475 L 1451.388428 830.61731 L 1301.695557 917.895996 L 1300.050537 906.007507 L 1451.388428 906.007507 L 1451.388428 961.100342 L 1233.429077 961.100342 L 1233.429077 906.007507 L 1383.73877 818.728821 L 1385.383789 830.61731 L 1233.429077 830.61731 Z M 1121.364868 775.524475 L 1172.770508 775.524475 L 1172.770508 961.100342 L 1121.364868 961.100342 Z M 855.084229 775.524475 L 1068.931274 775.524475 L 1068.931274 830.61731 L 855.084229 830.61731 Z M 936.304993 826.847778 L 987.710571 826.847778 L 987.710571 961.100342 L 936.304993 961.100342 Z M 751.245117 775.524475 L 802.650635 775.524475 L 802.650635 961.100342 L 751.245117 961.100342 Z M 639.180969 865.702759 L 639.180969 775.524475 L 690.586487 775.524475 L 690.586487 874.401611 C 690.586487 885.420288 688.838806 896.197083 685.343201 906.732483 C 681.847595 917.267761 676.36438 926.884705 668.893433 935.583679 C 661.422424 944.282654 651.826843 951.193298 640.106262 956.315979 C 628.385803 961.438721 614.369324 964 598.05658 964 C 586.678772 964 575.472473 962.501831 564.437317 959.505493 C 553.402222 956.509277 543.429626 951.628296 534.519287 944.862488 C 525.608948 938.096558 518.480835 929.059631 513.134583 917.750977 C 507.788422 906.442383 505.046814 892.476074 504.90976 875.85144 L 554.259033 875.85144 C 556.178162 887.836609 560.59906 896.342041 567.521667 901.368164 C 574.444336 906.394104 584.622498 908.907166 598.05658 908.907166 C 609.434387 908.907166 618.070435 907.07074 623.964966 903.397827 C 629.859497 899.724976 633.86908 894.602356 635.993835 888.029846 C 638.118652 881.457275 639.180969 874.015015 639.180969 865.702759 Z M 400.864929 775.524475 L 452.270477 775.524475 L 452.270477 961.100342 L 400.864929 961.100342 Z M 249.321396 775.524475 C 267.827484 775.524475 283.111908 778.037476 295.17514 783.063477 C 307.238373 788.0896 316.696869 794.951965 323.550964 803.650818 C 330.40509 812.349792 335.237152 822.256714 338.047333 833.371948 C 340.857544 844.487244 342.262634 856.134033 342.262634 868.3125 C 342.262634 880.490967 340.686188 892.137573 337.533295 903.252808 C 334.380432 914.368103 329.205627 924.275024 322.00882 932.973999 C 314.812012 941.672974 305.284943 948.535278 293.427338 953.56134 C 281.569733 958.587402 266.86792 961.100342 249.321396 961.100342 L 101.273445 961.100342 L 101.273445 775.524475 Z M 152.679001 903.107849 L 247.265167 903.107849 C 254.941772 903.107849 261.453064 902.382996 266.799286 900.933167 C 272.145477 899.483337 276.42923 897.308655 279.650665 894.408997 C 282.872101 891.509338 285.202454 887.884827 286.641815 883.535461 C 288.081177 879.185974 288.800842 874.111694 288.800842 868.3125 C 288.800842 862.513184 288.081177 857.438843 286.641815 853.089478 C 285.202454 848.73999 282.872101 845.115479 279.650665 842.21582 C 276.42923 839.316162 272.145477 837.141479 266.799286 835.69165 C 261.453064 834.241821 254.941772 833.516968 247.265167 833.516968 L 152.679001 833.516968 Z"/>
    </g>
    <linearGradient id="linearGradient2" x1="1423.886841" y1="1011.427522" x2="1423.886841" y2="1128" gradientUnits="userSpaceOnUse">
        <stop offset="0" stop-color="#a7edff" stop-opacity="1"/>
        <stop offset="0.305961" stop-color="#00ffdb" stop-opacity="1"/>
    </linearGradient>
    <path id="Shape" fill="url(#linearGradient2)" fill-rule="evenodd" stroke="none" d="M 1161.180664 1098.685425 L 1161.180664 1124.571411 L 1130.302734 1124.571411 L 1130.302734 1098.685425 Z M 1330.766602 1078.799561 C 1330.361328 1089.65686 1327.565308 1098.742554 1322.378418 1106.057007 C 1317.191528 1113.371338 1309.553223 1118.857056 1299.463013 1122.514282 C 1289.372925 1126.171387 1276.628784 1128 1261.230225 1128 C 1249.47876 1128 1238.942993 1127.114258 1229.622803 1125.342896 C 1220.302734 1123.571411 1212.360352 1120.542847 1205.795776 1116.25708 C 1199.231079 1111.971313 1194.206421 1106.114136 1190.721436 1098.685425 C 1187.23645 1091.256836 1185.494019 1081.885376 1185.494019 1070.570923 C 1185.494019 1059.25647 1187.23645 1049.799316 1190.721436 1042.199219 C 1194.206421 1034.599121 1199.231079 1028.541992 1205.795776 1024.027588 C 1212.360352 1019.513306 1220.302734 1016.284729 1229.622803 1014.341858 C 1238.942993 1012.398987 1249.47876 1011.42749 1261.230225 1011.42749 C 1276.628784 1011.42749 1289.393188 1013.398926 1299.523804 1017.341919 C 1309.654419 1021.28479 1317.31311 1027.084717 1322.5 1034.742065 C 1327.68689 1042.399292 1330.48291 1051.713501 1330.888062 1062.685059 L 1299.280762 1062.685059 C 1298.308105 1059.027954 1296.525146 1055.799316 1293.931763 1052.999268 C 1291.338379 1050.199341 1287.448242 1047.99939 1282.261353 1046.399292 C 1277.074463 1044.799316 1270.064209 1043.999268 1261.230225 1043.999268 C 1250.856445 1043.999268 1242.427979 1044.88501 1235.944336 1046.656372 C 1229.460693 1048.427856 1224.719727 1051.25647 1221.720947 1055.142212 C 1218.72229 1059.027954 1217.223022 1064.170898 1217.223022 1070.570923 C 1217.223022 1076.399536 1218.72229 1081.142334 1221.720947 1084.799561 C 1224.719727 1088.456787 1229.460693 1091.142456 1235.944336 1092.856812 C 1242.427979 1094.571167 1250.856445 1095.428223 1261.230225 1095.428223 C 1270.064209 1095.428223 1277.054199 1094.685425 1282.200562 1093.199707 C 1287.346924 1091.713989 1291.216797 1089.685303 1293.810181 1087.113892 C 1296.403687 1084.54248 1298.186646 1081.770996 1299.15918 1078.799561 Z M 1436.043457 1128 C 1418.375732 1128 1404.152466 1125.799927 1393.373535 1121.400024 C 1382.594482 1116.999878 1374.75354 1110.485596 1369.850342 1101.856934 C 1364.947144 1093.228271 1362.495483 1082.514038 1362.495483 1069.713745 C 1362.495483 1056.913574 1364.947144 1046.199341 1369.850342 1037.570679 C 1374.75354 1028.942017 1382.594482 1022.427673 1393.373535 1018.027649 C 1404.152466 1013.627563 1418.375732 1011.42749 1436.043457 1011.42749 C 1453.711304 1011.42749 1467.934448 1013.627563 1478.713501 1018.027649 C 1489.492432 1022.427673 1497.333496 1028.942017 1502.236694 1037.570679 C 1507.139893 1046.199341 1509.591553 1056.913574 1509.591553 1069.713745 C 1509.591553 1082.514038 1507.139893 1093.228271 1502.236694 1101.856934 C 1497.333496 1110.485596 1489.492432 1116.999878 1478.713501 1121.400024 C 1467.934448 1125.799927 1453.711304 1128 1436.043457 1128 Z M 1436.043457 1095.428223 C 1444.391113 1095.428223 1451.604004 1094.713989 1457.682373 1093.2854 C 1463.760742 1091.856812 1468.461304 1089.2854 1471.78418 1085.571045 C 1475.107056 1081.856689 1476.768433 1076.571045 1476.768433 1069.713745 C 1476.768433 1062.856567 1475.107056 1057.570801 1471.78418 1053.856445 C 1468.461304 1050.14209 1463.760742 1047.570679 1457.682373 1046.14209 C 1451.604004 1044.713501 1444.391113 1043.999268 1436.043457 1043.999268 C 1427.695923 1043.999268 1420.381714 1044.713501 1414.100708 1046.14209 C 1407.819702 1047.570679 1402.916504 1050.14209 1399.391113 1053.856445 C 1395.865601 1057.570801 1394.102905 1062.856567 1394.102905 1069.713745 C 1394.102905 1076.571045 1395.865601 1081.856689 1399.391113 1085.571045 C 1402.916504 1089.2854 1407.819702 1091.856812 1414.100708 1093.2854 C 1420.381714 1094.713989 1427.695923 1095.428223 1436.043457 1095.428223 Z M 1638.938721 1111.542725 L 1620.703613 1111.542725 L 1687.079224 1014.85614 L 1717.470947 1014.85614 L 1717.470947 1124.571411 L 1687.079224 1124.571411 L 1687.079224 1049.827881 L 1696.196777 1055.142212 L 1648.177734 1124.571411 L 1611.707764 1124.571411 L 1563.567261 1055.313599 L 1572.806274 1049.99939 L 1572.806274 1124.571411 L 1542.414551 1124.571411 L 1542.414551 1014.85614 L 1572.806274 1014.85614 Z"/>
    <g id="Group-copy">
        <g id="Group">
            <g id="g1">
                <clipPath id="clipPath1">
                    <path d="M 639.668333 53.530507 C 681.805201 315.150608 91.771239 469.844356 91.771239 469.844356 C 91.771239 469.844356 699.141566 413.470018 749.013817 673.659566 L 1004.469909 308.910955 Z M 639.668333 53.530507"/>
                </clipPath>
                <g id="g2" clip-path="url(#clipPath1)">
                    <g id="g3">
                        <clipPath id="clipPath2">
                            <path d="M 1064.618685 617.943316 L 948.309988 -9.211758 L 31.622651 160.811962 L 147.996031 787.955631 Z M 1064.618685 617.943316"/>
                        </clipPath>
                        <g id="g4" clip-path="url(#clipPath2)">
                            <linearGradient id="linearGradient3" x1="225.111133" y1="389.371953" x2="871.194697" y2="389.371953" gradientUnits="userSpaceOnUse" gradientTransform="matrix(0.173648 0.984808 -0.984808 0.173648 836.423678 -218.067017)">
                                <stop offset="0.224997" stop-color="#a7edff" stop-opacity="1"/>
                                <stop offset="1" stop-color="#00ffdb" stop-opacity="1"/>
                            </linearGradient>
                            <path id="Path" fill="url(#linearGradient3)" stroke="none" d="M 1064.618652 617.943359 L 948.309998 -9.211792 L 31.687145 160.800598 L 147.996033 787.955627 Z M 1064.618652 617.943359"/>
                        </g>
                    </g>
                </g>
            </g>
        </g>
        <g id="g5">
            <linearGradient id="linearGradient4" x1="536.313197" y1="598.850997" x2="599.069105" y2="598.850997" gradientUnits="userSpaceOnUse" gradientTransform="matrix(0.173648 0.984808 -0.984808 0.173648 1058.865722 -64.205034)">
                <stop offset="0.224997" stop-color="#a7edff" stop-opacity="1"/>
                <stop offset="1" stop-color="#00ffdb" stop-opacity="1"/>
            </linearGradient>
            <path id="path1" fill="url(#linearGradient4)" stroke="none" d="M 597.671143 594.847778 L 579.386047 606.812561 L 578.843201 628.746582 L 561.843933 614.957703 L 540.942932 621.182495 L 548.71814 600.699524 L 536.304993 582.600342 L 558.101624 583.72876 L 571.367676 566.340698 L 577.080017 587.519226 Z M 597.671143 594.847778"/>
            <linearGradient id="linearGradient5" x1="380.891624" y1="245.362219" x2="456.744104" y2="245.362219" gradientUnits="userSpaceOnUse" gradientTransform="matrix(0.173648 0.984808 -0.984808 0.173648 587.725521 -209.699562)">
                <stop offset="0.224997" stop-color="#a7edff" stop-opacity="1"/>
                <stop offset="1" stop-color="#00ffdb" stop-opacity="1"/>
            </linearGradient>
            <path id="path2" fill="url(#linearGradient5)" stroke="none" d="M 455.054352 240.52356 L 432.974792 254.976868 L 432.332855 281.490479 L 411.778503 264.806702 L 386.489929 272.367371 L 395.894226 247.595032 L 380.886932 225.723938 L 407.233887 227.096863 L 423.279449 206.064209 L 430.155548 231.658264 Z M 455.054352 240.52356"/>
            <linearGradient id="linearGradient6" x1="244.135227" y1="245.020424" x2="282.481911" y2="245.020424" gradientUnits="userSpaceOnUse" gradientTransform="matrix(0.173648 0.984808 -0.984808 0.173648 458.88353 -56.835246)">
                <stop offset="0.224997" stop-color="#a7edff" stop-opacity="1"/>
                <stop offset="1" stop-color="#00ffdb" stop-opacity="1"/>
            </linearGradient>
            <path id="path3" fill="url(#linearGradient6)" stroke="none" d="M 281.628296 242.577148 L 270.453644 249.885315 L 270.130676 263.286621 L 259.738983 254.854065 L 246.963654 258.663513 L 251.71167 246.149963 L 244.134598 235.099731 L 257.454895 235.787659 L 265.554169 225.155334 L 269.042511 238.098511 Z M 281.628296 242.577148"/>
            <linearGradient id="linearGradient7" x1="145.353032" y1="388.420424" x2="170.908624" y2="388.420424" gradientUnits="userSpaceOnUse" gradientTransform="matrix(0.173648 0.984808 -0.984808 0.173648 513.191142 165.243459)">
                <stop offset="0.224997" stop-color="#a7edff" stop-opacity="1"/>
                <stop offset="1" stop-color="#00ffdb" stop-opacity="1"/>
            </linearGradient>
            <path id="path4" fill="url(#linearGradient7)" stroke="none" d="M 170.343918 386.793091 L 162.884155 391.650574 L 162.664688 400.595886 L 155.746704 394.988159 L 147.234558 397.515808 L 150.380997 389.15802 L 145.337448 381.808105 L 154.222748 382.269165 L 159.62114 375.182739 L 161.937805 383.809143 Z M 170.343918 386.793091"/>
            <linearGradient id="linearGradient8" x1="265.624937" y1="557.50295" x2="295.454647" y2="557.50295" gradientUnits="userSpaceOnUse" gradientTransform="matrix(0.173648 0.984808 -0.984808 0.173648 780.857796 184.415816)">
                <stop offset="0.224997" stop-color="#a7edff" stop-opacity="1"/>
                <stop offset="1" stop-color="#00ffdb" stop-opacity="1"/>
            </linearGradient>
            <path id="path5" fill="url(#linearGradient8)" stroke="none" d="M 294.795502 555.603455 L 286.088104 561.273315 L 285.83194 571.714722 L 277.756927 565.169128 L 267.821136 568.119507 L 271.493805 558.363953 L 265.60675 549.784729 L 275.978088 550.322876 L 282.279358 542.05127 L 284.98349 552.120483 Z M 294.795502 555.603455"/>
            <linearGradient id="linearGradient9" x1="332.624937" y1="607.50295" x2="362.454647" y2="607.50295" gradientUnits="userSpaceOnUse" gradientTransform="matrix(0.173648 0.984808 -0.984808 0.173648 885.463756 159.751288)">
                <stop offset="0.224997" stop-color="#a7edff" stop-opacity="1"/>
                <stop offset="1" stop-color="#00ffdb" stop-opacity="1"/>
            </linearGradient>
            <path id="Path-copy-5" fill="url(#linearGradient9)" stroke="none" d="M 361.795502 605.603455 L 353.088104 611.273315 L 352.83194 621.714722 L 344.756927 615.169128 L 334.821136 618.119507 L 338.493805 608.363953 L 332.60675 599.784729 L 342.978088 600.322876 L 349.279358 592.05127 L 351.98349 602.120483 Z M 361.795502 605.603455"/>
            <linearGradient id="linearGradient10" x1="42.910906" y1="403.48689" x2="62.687567" y2="403.48689" gradientUnits="userSpaceOnUse" gradientTransform="matrix(0.173648 0.984808 -0.984808 0.173648 440.987763 281.425029)">
                <stop offset="0.224997" stop-color="#a7edff" stop-opacity="1"/>
                <stop offset="1" stop-color="#00ffdb" stop-opacity="1"/>
            </linearGradient>
            <path id="path6" fill="url(#linearGradient10)" stroke="none" d="M 62.250565 402.227539 L 56.477692 405.986572 L 56.30785 412.909119 L 50.954239 408.569458 L 44.366955 410.525513 L 46.801891 404.057739 L 42.898849 398.369812 L 49.774895 398.726624 L 53.952545 393.242676 L 55.745338 399.918396 Z M 62.250565 402.227539"/>
            <linearGradient id="linearGradient11" x1="129.291784" y1="577.666077" x2="150.820008" y2="577.666077" gradientUnits="userSpaceOnUse" gradientTransform="matrix(0.173648 0.984808 -0.984808 0.173648 684.625477 339.427283)">
                <stop offset="0.224997" stop-color="#a7edff" stop-opacity="1"/>
                <stop offset="1" stop-color="#00ffdb" stop-opacity="1"/>
            </linearGradient>
            <path id="path7" fill="url(#linearGradient11)" stroke="none" d="M 150.344299 576.295166 L 144.060135 580.387146 L 143.875259 587.922791 L 138.047501 583.198792 L 130.876785 585.328125 L 133.527374 578.287476 L 129.278656 572.095825 L 136.763702 572.484192 L 141.311356 566.514526 L 143.262924 573.781494 Z M 150.344299 576.295166"/>
            <linearGradient id="linearGradient12" x1="53.793317" y1="519.560188" x2="73.695265" y2="519.560188" gradientUnits="userSpaceOnUse" gradientTransform="matrix(0.173648 0.984808 -0.984808 0.173648 564.342112 366.563637)">
                <stop offset="0.224997" stop-color="#a7edff" stop-opacity="1"/>
                <stop offset="1" stop-color="#00ffdb" stop-opacity="1"/>
            </linearGradient>
            <path id="path8" fill="url(#linearGradient12)" stroke="none" d="M 73.255493 518.292847 L 67.446045 522.075745 L 67.275131 529.042114 L 61.887608 524.674927 L 55.258587 526.643433 L 57.70895 520.134644 L 53.781181 514.410706 L 60.70079 514.769775 L 64.904907 509.251038 L 66.709061 515.969055 Z M 73.255493 518.292847"/>
            <linearGradient id="linearGradient13" x1="350.717243" y1="528.086489" x2="400.671523" y2="528.086489" gradientUnits="userSpaceOnUse" gradientTransform="matrix(0.173648 0.984808 -0.984808 0.173648 830.519407 66.398492)">
                <stop offset="0.224997" stop-color="#a7edff" stop-opacity="1"/>
                <stop offset="1" stop-color="#00ffdb" stop-opacity="1"/>
            </linearGradient>
            <path id="path9" fill="url(#linearGradient13)" stroke="none" d="M 399.567841 524.905579 L 384.994598 534.44928 L 384.557007 551.88623 L 371.034241 540.924744 L 354.394958 545.86554 L 360.554016 529.577148 L 350.686951 515.161316 L 368.055267 516.062439 L 378.607422 502.210388 L 383.136169 519.072815 Z M 399.567841 524.905579"/>
            <linearGradient id="linearGradient14" x1="299.489347" y1="332.567137" x2="327.415151" y2="332.567137" gradientUnits="userSpaceOnUse" gradientTransform="matrix(0.173648 0.984808 -0.984808 0.173648 586.536532 -33.872745)">
                <stop offset="0.224997" stop-color="#a7edff" stop-opacity="1"/>
                <stop offset="1" stop-color="#00ffdb" stop-opacity="1"/>
            </linearGradient>
            <path id="path10" fill="url(#linearGradient14)" stroke="none" d="M 315.601959 346.364319 C 308.054077 347.521057 300.911957 342.334961 299.740417 334.702576 C 298.526581 327.077576 303.712616 319.935608 311.302795 318.771423 C 318.843231 317.572449 325.992828 322.800781 327.164337 330.433228 C 328.328522 338.023254 323.184723 345.157959 315.601959 346.364319 Z M 315.601959 346.364319"/>
            <linearGradient id="linearGradient15" x1="346.07998" y1="172.565671" x2="363.31169" y2="172.565671" gradientUnits="userSpaceOnUse" gradientTransform="matrix(0.173648 0.984808 -0.984808 0.173648 463.04756 -206.707252)">
                <stop offset="0.224997" stop-color="#a7edff" stop-opacity="1"/>
                <stop offset="1" stop-color="#00ffdb" stop-opacity="1"/>
            </linearGradient>
            <path id="Path-copy-2" fill="url(#linearGradient15)" stroke="none" d="M 356.022308 181.079285 C 351.364868 181.79303 346.957794 178.592957 346.234924 173.883362 C 345.485901 169.178345 348.685974 164.771362 353.369507 164.052979 C 358.022369 163.313171 362.434021 166.539307 363.156921 171.248901 C 363.875275 175.932373 360.701294 180.3349 356.022308 181.079285 Z M 356.022308 181.079285"/>
            <linearGradient id="linearGradient16" x1="174.022793" y1="301.940294" x2="198.596205" y2="301.940294" gradientUnits="userSpaceOnUse" gradientTransform="matrix(0.173648 0.984808 -0.984808 0.173648 451.310337 66.029873)">
                <stop offset="0.224997" stop-color="#a7edff" stop-opacity="1"/>
                <stop offset="1" stop-color="#00ffdb" stop-opacity="1"/>
            </linearGradient>
            <path id="path11" fill="url(#linearGradient16)" stroke="none" d="M 188.200607 314.079956 C 181.555496 315.136536 175.261444 310.566406 174.228928 303.840271 C 173.159225 297.120667 177.729538 290.826477 184.418396 289.800659 C 191.063599 288.74408 197.36412 293.351501 198.390106 300.040527 C 199.459824 306.760132 194.889572 313.054077 188.200607 314.079956 Z M 188.200607 314.079956"/>
            <linearGradient id="linearGradient17" x1="207.752682" y1="580.440584" x2="223.754978" y2="580.440584" gradientUnits="userSpaceOnUse" gradientTransform="matrix(0.173648 0.984808 -0.984808 0.173648 749.910958 267.17209)">
                <stop offset="0.224997" stop-color="#a7edff" stop-opacity="1"/>
                <stop offset="1" stop-color="#00ffdb" stop-opacity="1"/>
            </linearGradient>
            <path id="Path-copy-4" fill="url(#linearGradient17)" stroke="none" d="M 216.985321 588.345947 C 212.658005 589.033997 208.559296 586.057922 207.886917 581.677856 C 207.190323 577.302063 210.166519 573.203247 214.522339 572.535217 C 218.849716 571.847168 222.952637 574.847534 223.620773 579.20343 C 224.317368 583.579285 221.341202 587.677917 216.985321 588.345947 Z M 216.985321 588.345947"/>
            <linearGradient id="linearGradient18" x1="0.084719" y1="473.811435" x2="12.311673" y2="473.811435" gradientUnits="userSpaceOnUse" gradientTransform="matrix(0.173648 0.984808 -0.984808 0.173648 471.735065 385.430912)">
                <stop offset="0.224997" stop-color="#a7edff" stop-opacity="1"/>
                <stop offset="1" stop-color="#00ffdb" stop-opacity="1"/>
            </linearGradient>
            <path id="Path-copy-3" fill="url(#linearGradient18)" stroke="none" d="M 7.139149 479.851746 C 3.832756 480.377441 0.701035 478.103516 0.187284 474.756775 C -0.344968 471.41333 1.929075 468.281555 5.257242 467.771118 C 8.563689 467.245422 11.698628 469.537903 12.209126 472.86615 C 12.741379 476.209656 10.46737 479.341309 7.139149 479.851746 Z M 7.139149 479.851746"/>
            <linearGradient id="linearGradient19" x1="186.397806" y1="515.580287" x2="213.430003" y2="515.580287" gradientUnits="userSpaceOnUse" gradientTransform="matrix(0.173648 0.984808 -0.984808 0.173648 672.946683 229.173947)">
                <stop offset="0.224997" stop-color="#a7edff" stop-opacity="1"/>
                <stop offset="1" stop-color="#00ffdb" stop-opacity="1"/>
            </linearGradient>
            <path id="path12" fill="url(#linearGradient19)" stroke="none" d="M 202.006683 528.933411 C 194.679062 530.084595 187.788818 525.037415 186.630829 517.670776 C 185.469421 510.284607 190.493546 503.378235 197.821182 502.227112 C 205.171753 501.092102 212.04248 506.1427 213.200439 513.509338 C 214.358459 520.876038 209.33432 527.782349 202.006683 528.933411 Z M 202.006683 528.933411"/>
            <linearGradient id="linearGradient20" x1="512.439845" y1="161.016935" x2="549.704775" y2="161.016935" gradientUnits="userSpaceOnUse" gradientTransform="matrix(0.173648 0.984808 -0.984808 0.173648 597.423298 -389.947491)">
                <stop offset="0.224997" stop-color="#a7edff" stop-opacity="1"/>
                <stop offset="1" stop-color="#00ffdb" stop-opacity="1"/>
            </linearGradient>
            <path id="path13" fill="url(#linearGradient20)" stroke="none" d="M 533.93158 179.430237 C 523.832458 180.988953 514.345215 174.06311 512.767456 163.856262 C 511.145325 153.712708 518.071167 144.225464 528.161011 142.612793 C 538.260132 141.054077 547.747375 147.979919 549.379028 158.177246 C 550.947266 168.330322 544.021423 177.817566 533.93158 179.430237 Z M 533.93158 179.430237"/>
            <linearGradient id="linearGradient21" x1="441.392491" y1="585.12196" x2="479.123762" y2="585.12196" gradientUnits="userSpaceOnUse" gradientTransform="matrix(0.173648 0.984808 -0.984808 0.173648 956.567784 30.250826)">
                <stop offset="0.224997" stop-color="#a7edff" stop-opacity="1"/>
                <stop offset="1" stop-color="#00ffdb" stop-opacity="1"/>
            </linearGradient>
            <path id="Path-copy" fill="url(#linearGradient21)" stroke="none" d="M 463.153198 603.765686 C 452.927643 605.343933 443.321686 598.331421 441.724243 587.996826 C 440.081787 577.726318 447.094299 568.120361 457.310394 566.487549 C 467.535919 564.909302 477.141876 571.921814 478.793945 582.246765 C 480.381805 592.526855 473.369293 602.132813 463.153198 603.765686 Z M 463.153198 603.765686"/>
        </g>
        <g id="g6">
            <clipPath id="clipPath3">
                <path d="M 1767.709148 -197.364784 L 1893.288208 514.829455 L 659.745663 732.336288 L 534.166603 20.142048 Z M 1767.709148 -197.364784"/>
            </clipPath>
            <g id="g7" clip-path="url(#clipPath3)">
                <radialGradient id="radialGradient1" cx="1224.080959" cy="270.659514" r="354.707042" fx="1224.080959" fy="270.659514" gradientUnits="userSpaceOnUse" gradientTransform="matrix(0.173648 0.984808 -0.984808 0.173648 1278.069119 -981.824436)">
                    <stop offset="0" stop-color="#4b00ff" stop-opacity="1"/>
                    <stop offset="1" stop-color="#6e00ff" stop-opacity="1"/>
                </radialGradient>
                <path id="path14" fill="url(#radialGradient1)" fill-rule="evenodd" stroke="none" d="M 1434.559692 233.546509 C 1425.634033 201.517761 1393.955566 181.286987 1361.127686 187.075439 C 1328.379639 192.849792 1305.53064 222.695251 1308.097656 255.845154 C 1317.023315 287.873657 1348.716187 308.184021 1381.464233 302.409607 C 1414.235962 296.303101 1437.126709 266.696167 1434.559692 233.546509 Z M 672.310181 353.199341 C 676.273438 331.519287 697.699036 315.447815 736.395203 304.362915 C 713.745178 182.880249 655.471252 101.527222 560.886353 60.588989 C 652.082947 -9.255249 775.71936 -18.762207 876.717102 36.698975 C 961.834351 9.069214 1053.044678 7.164795 1139.258057 31.302612 C 1008.01886 45.100464 946.175354 79.690918 953.583191 135.181152 C 1344.757324 61.69873 1637.163818 71.361694 1831.353638 163.580994 C 1680.415649 316.655457 1408.892456 425.426636 1016.232544 490.483337 C 1028.250244 545.160706 1098.194702 556.513184 1226.252319 524.671875 C 1153.437866 576.522827 1067.062866 605.849609 977.684937 609.315796 C 902.064758 695.919434 782.553589 729.286072 672.730225 694.887085 C 747.291382 624.12384 774.544495 527.690308 754.278992 405.786926 C 714.125244 408.605408 688.494995 400.831116 677.355774 381.81427 L 1010.958313 322.99115 L 1005.91272 294.376221 Z M 672.310181 353.199341"/>
            </g>
        </g>
    </g>
</svg>
